<?xml version="1.0" standalone="no"?><!DOCTYPE svg PUBLIC "-//W3C//DTD SVG 1.1//EN" "http://www.w3.org/Graphics/SVG/1.1/DTD/svg11.dtd"><svg t="1725415832210" class="icon" viewBox="0 0 1024 1024" version="1.1" xmlns="http://www.w3.org/2000/svg" p-id="4887" xmlns:xlink="http://www.w3.org/1999/xlink" width="200" height="200"><path d="M616 582l-480 0c-4.4 0-8 3.6-8 8l0 55.99999999c0 4.4 3.6 8 8 8.00000001L616 654c4.4 0 8-3.6 8-8l0-56c0-4.4-3.6-8-8-8z m8-204c0-4.4-3.6-8-8-8l-480 0c-4.4 0-8 3.6-8 8.00000001l0 55.99999999c0 4.4 3.6 8 8 8L616 442c4.4 0 8-3.6 8-8l0-56z m-504 486L904 864c4.4 0 8-3.6 8-8l0-56c0-4.4-3.6-8-8-8l-784 0c-4.4 0-8 3.6-8 8l0 56c0 4.4 3.6 8 8 8z m0-632L904 232c4.4 0 8-3.6 8-8l0-56c0-4.4-3.6-8-8-8l-784 0c-4.4 0-8 3.6-8 8l0 56c0 4.4 3.6 8 8 8zM908.6 505.1L752.29999999 382c-5.8-4.6-14.4-0.5-14.39999999 6.90000001L737.9 635.09999999c0 7.4 8.5 11.49999999 14.39999999 6.90000001L908.6 518.9c4.5-3.5 4.5-10.3 0-13.8z" fill="#290918" p-id="4888"></path></svg>